<svg width="47" height="47" viewBox="0 0 47 47" fill="none" xmlns="http://www.w3.org/2000/svg">
<path d="M37.2083 5.875C38.2471 5.875 39.2433 6.28765 39.9778 7.02216C40.7124 7.75668 41.125 8.7529 41.125 9.79167V37.2083C41.125 38.2471 40.7124 39.2433 39.9778 39.9778C39.2433 40.7124 38.2471 41.125 37.2083 41.125H9.79167C8.7529 41.125 7.75668 40.7124 7.02216 39.9778C6.28765 39.2433 5.875 38.2471 5.875 37.2083V9.79167C5.875 8.7529 6.28765 7.75668 7.02216 7.02216C7.75668 6.28765 8.7529 5.875 9.79167 5.875H37.2083ZM36.2292 36.2292V25.85C36.2292 24.1568 35.5566 22.533 34.3593 21.3357C33.162 20.1384 31.5382 19.4658 29.845 19.4658C28.1804 19.4658 26.2417 20.4842 25.3017 22.0117V19.8379H19.8379V36.2292H25.3017V26.5746C25.3017 25.0667 26.5158 23.8329 28.0238 23.8329C28.7509 23.8329 29.4482 24.1218 29.9624 24.6359C30.4766 25.1501 30.7654 25.8474 30.7654 26.5746V36.2292H36.2292ZM13.4733 16.7633C14.3459 16.7633 15.1827 16.4167 15.7997 15.7997C16.4167 15.1827 16.7633 14.3459 16.7633 13.4733C16.7633 11.6521 15.2946 10.1638 13.4733 10.1638C12.5956 10.1638 11.7538 10.5124 11.1331 11.1331C10.5124 11.7538 10.1638 12.5956 10.1638 13.4733C10.1638 15.2946 11.6521 16.7633 13.4733 16.7633ZM16.1954 36.2292V19.8379H10.7708V36.2292H16.1954Z" fill="#0A66C2"/>
<circle cx="13.5" cy="13.5" r="3.5" fill="white"/>
<rect x="11" y="20" width="5" height="16" fill="white"/>
<rect x="20" y="20" width="5" height="16" fill="white"/>
<rect x="31" y="25" width="5" height="11" fill="white"/>
<rect x="25" y="22" width="1" height="4" fill="white"/>
<rect x="26" y="21" width="1" height="3" fill="white"/>
<rect x="27" y="20" width="1" height="4" fill="white"/>
<rect x="28" y="20" width="1" height="4" fill="white"/>
<rect x="29" y="20" width="1" height="4" fill="white"/>
<rect x="30" y="20" width="1" height="5" fill="white"/>
<rect x="31" y="20" width="1" height="5" fill="white"/>
<rect x="32" y="20" width="1" height="5" fill="white"/>
<rect x="33" y="21" width="1" height="4" fill="white"/>
<rect x="34" y="22" width="1" height="3" fill="white"/>
<rect x="35" y="24" width="1" height="1" fill="white"/>
</svg>
