<svg width="54" height="54" viewBox="0 0 54 54" fill="none" xmlns="http://www.w3.org/2000/svg">
<path d="M22.5 33.75L34.1775 27L22.5 20.25V33.75ZM48.51 16.1325C48.8025 17.19 49.005 18.6075 49.14 20.4075C49.2975 22.2075 49.365 23.76 49.365 25.11L49.5 27C49.5 31.9275 49.14 35.55 48.51 37.8675C47.9475 39.8925 46.6425 41.1975 44.6175 41.76C43.56 42.0525 41.625 42.255 38.655 42.39C35.73 42.5475 33.0525 42.615 30.5775 42.615L27 42.75C17.5725 42.75 11.7 42.39 9.3825 41.76C7.3575 41.1975 6.0525 39.8925 5.49 37.8675C5.1975 36.81 4.995 35.3925 4.86 33.5925C4.7025 31.7925 4.635 30.24 4.635 28.89L4.5 27C4.5 22.0725 4.86 18.45 5.49 16.1325C6.0525 14.1075 7.3575 12.8025 9.3825 12.24C10.44 11.9475 12.375 11.745 15.345 11.61C18.27 11.4525 20.9475 11.385 23.4225 11.385L27 11.25C36.4275 11.25 42.3 11.61 44.6175 12.24C46.6425 12.8025 47.9475 14.1075 48.51 16.1325Z" fill="#FF1616"/>
<path d="M35.0461 26.8844L22.2564 35.3229L22.3318 18.3328L35.0461 26.8844Z" fill="white"/>
</svg>
