<svg width="61" height="61" viewBox="0 0 61 61" fill="none" xmlns="http://www.w3.org/2000/svg">
<path d="M30.4998 3.38892C25.1377 3.38892 19.8961 4.97895 15.4377 7.95796C10.9793 10.937 7.50437 15.1711 5.45239 20.1251C3.40042 25.079 2.86353 30.5301 3.90962 35.7891C4.9557 41.0482 7.53779 45.8789 11.3293 49.6705C15.1209 53.462 19.9516 56.0441 25.2107 57.0902C30.4697 58.1363 35.9209 57.5994 40.8748 55.5474C45.8287 53.4955 50.0629 50.0206 53.0419 45.5622C56.0209 41.1038 57.6109 35.8621 57.6109 30.5C57.6109 23.3097 54.7546 16.4139 49.6702 11.3296C44.5859 6.24526 37.6901 3.38892 30.4998 3.38892ZM48.2067 21.4009L25.9417 43.6489L12.7929 30.5C12.3435 30.0506 12.091 29.4411 12.091 28.8056C12.091 28.17 12.3435 27.5605 12.7929 27.1111C13.2422 26.6617 13.8518 26.4093 14.4873 26.4093C15.1228 26.4093 15.7323 26.6617 16.1817 27.1111L25.9756 36.905L44.8517 18.0459C45.0743 17.8233 45.3384 17.6468 45.6292 17.5264C45.9199 17.406 46.2315 17.344 46.5462 17.344C46.8609 17.344 47.1725 17.406 47.4632 17.5264C47.7539 17.6468 48.0181 17.8233 48.2406 18.0459C48.4631 18.2684 48.6397 18.5325 48.7601 18.8233C48.8805 19.114 48.9425 19.4256 48.9425 19.7403C48.9425 20.055 48.8805 20.3666 48.7601 20.6573C48.6397 20.9481 48.4631 21.2122 48.2406 21.4347L48.2067 21.4009Z" fill="#037F41"/>
</svg>
