<svg width="49" height="49" viewBox="0 0 49 49" fill="none" xmlns="http://www.w3.org/2000/svg">
<rect width="49" height="49" rx="24.5" fill="url(#paint0_radial_280_3136)"/>
<rect width="49" height="49" rx="24.5" fill="url(#paint1_radial_280_3136)"/>
<path d="M16.9749 6.5835H32.0249C37.7583 6.5835 42.4166 11.2418 42.4166 16.9752V32.0252C42.4166 34.7812 41.3218 37.4244 39.3729 39.3732C37.4241 41.322 34.781 42.4168 32.0249 42.4168H16.9749C11.2416 42.4168 6.58325 37.7585 6.58325 32.0252V16.9752C6.58325 14.2191 7.67809 11.576 9.6269 9.62714C11.5757 7.67833 14.2189 6.5835 16.9749 6.5835ZM16.6166 10.1668C14.9059 10.1668 13.2654 10.8464 12.0557 12.056C10.8461 13.2656 10.1666 14.9062 10.1666 16.6168V32.3835C10.1666 35.9489 13.0512 38.8335 16.6166 38.8335H32.3833C34.0939 38.8335 35.7345 38.1539 36.9441 36.9443C38.1537 35.7347 38.8333 34.0941 38.8333 32.3835V16.6168C38.8333 13.0514 35.9487 10.1668 32.3833 10.1668H16.6166ZM33.9062 12.8543C34.5001 12.8543 35.0698 13.0903 35.4898 13.5103C35.9098 13.9303 36.1458 14.4999 36.1458 15.0939C36.1458 15.6879 35.9098 16.2575 35.4898 16.6775C35.0698 17.0975 34.5001 17.3335 33.9062 17.3335C33.3122 17.3335 32.7425 17.0975 32.3225 16.6775C31.9025 16.2575 31.6666 15.6879 31.6666 15.0939C31.6666 14.4999 31.9025 13.9303 32.3225 13.5103C32.7425 13.0903 33.3122 12.8543 33.9062 12.8543ZM24.4999 15.5418C26.8758 15.5418 29.1544 16.4857 30.8344 18.1657C32.5144 19.8457 33.4583 22.1243 33.4583 24.5002C33.4583 26.8761 32.5144 29.1546 30.8344 30.8347C29.1544 32.5147 26.8758 33.4585 24.4999 33.4585C22.124 33.4585 19.8454 32.5147 18.1654 30.8347C16.4854 29.1546 15.5416 26.8761 15.5416 24.5002C15.5416 22.1243 16.4854 19.8457 18.1654 18.1657C19.8454 16.4857 22.124 15.5418 24.4999 15.5418ZM24.4999 19.1252C23.0744 19.1252 21.7072 19.6915 20.6992 20.6995C19.6912 21.7075 19.1249 23.0746 19.1249 24.5002C19.1249 25.9257 19.6912 27.2929 20.6992 28.3009C21.7072 29.3089 23.0744 29.8752 24.4999 29.8752C25.9255 29.8752 27.2926 29.3089 28.3006 28.3009C29.3086 27.2929 29.8749 25.9257 29.8749 24.5002C29.8749 23.0746 29.3086 21.7075 28.3006 20.6995C27.2926 19.6915 25.9255 19.1252 24.4999 19.1252Z" fill="#FFF3F3"/>
<defs>
<radialGradient id="paint0_radial_280_3136" cx="0" cy="0" r="1" gradientUnits="userSpaceOnUse" gradientTransform="translate(41.405 55.615) rotate(-115.776) scale(66.8205 99.3879)">
<stop offset="0.24392" stop-color="#FF1B90"/>
<stop offset="0.436673" stop-color="#F80261"/>
<stop offset="0.688476" stop-color="#ED00C0"/>
<stop offset="0.776787" stop-color="#C500E9"/>
<stop offset="0.893155" stop-color="#7017FF"/>
</radialGradient>
<radialGradient id="paint1_radial_280_3136" cx="0" cy="0" r="1" gradientUnits="userSpaceOnUse" gradientTransform="translate(17.7625 47.3095) rotate(-57.4396) scale(28.9527 30.1149)">
<stop stop-color="#FFD600"/>
<stop offset="0.484375" stop-color="#FF6930"/>
<stop offset="0.734375" stop-color="#FE3B36"/>
<stop offset="1" stop-color="#FE3B36" stop-opacity="0"/>
</radialGradient>
</defs>
</svg>
