<svg width="32" height="37" viewBox="0 0 32 37" fill="none" xmlns="http://www.w3.org/2000/svg">
<path d="M23.715 13.3225C26.0497 15.0251 28.91 16.0269 31.9991 16.0269V9.96273C31.4144 9.96285 30.8313 9.90059 30.2593 9.77696V14.5503C27.1705 14.5503 24.3106 13.5487 21.9753 11.8462V24.2215C21.9753 30.4124 17.0558 35.4306 10.9878 35.4306C8.72372 35.4306 6.61922 34.7323 4.87109 33.5347C6.86634 35.616 9.64884 36.907 12.7271 36.907C18.7956 36.907 23.7152 31.8888 23.7152 25.6977V13.3225H23.715ZM25.8612 7.20444C24.668 5.87461 23.8845 4.15602 23.715 2.25601V1.47607H22.0663C22.4813 3.8909 23.8968 5.95397 25.8611 7.20444H25.8612ZM8.70909 28.7841C8.04246 27.8925 7.6821 26.8015 7.68372 25.6799C7.68372 22.8485 9.93384 20.5528 12.71 20.5528C13.2272 20.5525 13.7415 20.6335 14.2346 20.793V14.5932C13.6583 14.5127 13.0768 14.4784 12.4956 14.491V19.3166C12.0023 19.157 11.4877 19.076 10.9702 19.0765C8.19422 19.0765 5.94422 21.372 5.94422 24.2038C5.94422 26.2061 7.06884 27.9396 8.70909 28.7841Z" fill="#FF004F"/>
<path d="M21.9755 11.846C24.3109 13.5485 27.1705 14.5502 30.2595 14.5502V9.77683C28.5352 9.40211 27.0089 8.48298 25.8613 7.20444C23.8969 5.95384 22.4815 3.89077 22.0665 1.47607H17.7361V25.6974C17.7262 28.5212 15.48 30.8075 12.7099 30.8075C11.0776 30.8075 9.62737 30.0138 8.709 28.784C7.069 27.9396 5.94425 26.206 5.94425 24.2039C5.94425 21.3724 8.19425 19.0766 10.9702 19.0766C11.5021 19.0766 12.0147 19.1611 12.4956 19.3167V14.4911C6.53412 14.6168 1.73975 19.586 1.73975 25.6975C1.73975 28.7484 2.93362 31.5141 4.87137 33.5349C6.6195 34.7323 8.72387 35.4308 10.9881 35.4308C17.0562 35.4308 21.9756 30.4122 21.9756 24.2215V11.8462H21.9755V11.846Z" fill="#333333"/>
<path d="M30.2594 9.77693V8.48652C28.7045 8.48893 27.1803 8.04471 25.8611 7.20467C27.0289 8.50887 28.5665 9.40825 30.2594 9.77719V9.77693ZM22.0662 1.47617C22.0267 1.24545 21.9963 1.01318 21.9753 0.779934V0H15.996V24.2216C15.9865 27.0451 13.7403 29.3314 10.97 29.3314C10.1847 29.3326 9.41005 29.1453 8.70875 28.7845C9.62712 30.014 11.0774 30.8076 12.7096 30.8076C15.4796 30.8076 17.7261 28.5215 17.7359 25.6978V1.4763H22.0662V1.47617ZM12.4958 14.4912V13.1173C11.9961 13.0476 11.4924 13.0127 10.9881 13.0129C4.91937 13.0129 0 18.0314 0 24.2216C0 28.1026 1.93338 31.523 4.87138 33.5349C2.93363 31.5142 1.73975 28.7484 1.73975 25.6976C1.73975 19.5863 6.534 14.617 12.4958 14.4914V14.4912Z" fill="#00F2EA"/>
</svg>
