<svg width="37" height="37" viewBox="0 0 37 37" fill="none" xmlns="http://www.w3.org/2000/svg">
<path d="M18.5 31.3999C14.0209 31.3999 10.0613 29.1066 7.75004 25.6666C7.80379 22.0833 14.9167 20.1124 18.5 20.1124C22.0834 20.1124 29.1963 22.0833 29.25 25.6666C28.0656 27.4303 26.4655 28.8757 24.5909 29.8755C22.7163 30.8753 20.6246 31.3988 18.5 31.3999M18.5 5.95825C19.9256 5.95825 21.2927 6.52455 22.3007 7.53255C23.3087 8.54056 23.875 9.90771 23.875 11.3333C23.875 12.7588 23.3087 14.1259 22.3007 15.134C21.2927 16.142 19.9256 16.7083 18.5 16.7083C17.0745 16.7083 15.7073 16.142 14.6993 15.134C13.6913 14.1259 13.125 12.7588 13.125 11.3333C13.125 9.90771 13.6913 8.54056 14.6993 7.53255C15.7073 6.52455 17.0745 5.95825 18.5 5.95825M18.5 0.583252C16.1472 0.583252 13.8174 1.04668 11.6436 1.94708C9.46988 2.84747 7.49476 4.16721 5.83104 5.83092C2.47102 9.19095 0.583374 13.7481 0.583374 18.4999C0.583374 23.2517 2.47102 27.8089 5.83104 31.1689C7.49476 32.8326 9.46988 34.1524 11.6436 35.0528C13.8174 35.9532 16.1472 36.4166 18.5 36.4166C23.2518 36.4166 27.809 34.5289 31.169 31.1689C34.5291 27.8089 36.4167 23.2517 36.4167 18.4999C36.4167 8.592 28.3542 0.583252 18.5 0.583252Z" fill="black"/>
</svg>
