<svg width="37" height="37" viewBox="0 0 37 37" fill="none" xmlns="http://www.w3.org/2000/svg">
<path d="M18.4999 31.3999C14.0208 31.3999 10.0612 29.1066 7.74992 25.6666C7.80367 22.0833 14.9166 20.1124 18.4999 20.1124C22.0833 20.1124 29.1962 22.0833 29.2499 25.6666C28.0654 27.4303 26.4654 28.8757 24.5908 29.8755C22.7162 30.8753 20.6245 31.3988 18.4999 31.3999M18.4999 5.95825C19.9255 5.95825 21.2926 6.52455 22.3006 7.53255C23.3086 8.54056 23.8749 9.90771 23.8749 11.3333C23.8749 12.7588 23.3086 14.1259 22.3006 15.134C21.2926 16.142 19.9255 16.7083 18.4999 16.7083C17.0744 16.7083 15.7072 16.142 14.6992 15.134C13.6912 14.1259 13.1249 12.7588 13.1249 11.3333C13.1249 9.90771 13.6912 8.54056 14.6992 7.53255C15.7072 6.52455 17.0744 5.95825 18.4999 5.95825M18.4999 0.583252C16.1471 0.583252 13.8173 1.04668 11.6435 1.94708C9.46976 2.84747 7.49464 4.16721 5.83092 5.83092C2.4709 9.19095 0.583252 13.7481 0.583252 18.4999C0.583252 23.2517 2.4709 27.8089 5.83092 31.1689C7.49464 32.8326 9.46976 34.1524 11.6435 35.0528C13.8173 35.9532 16.1471 36.4166 18.4999 36.4166C23.2517 36.4166 27.8089 34.5289 31.1689 31.1689C34.5289 27.8089 36.4166 23.2517 36.4166 18.4999C36.4166 8.592 28.3541 0.583252 18.4999 0.583252Z" fill="white"/>
</svg>
